<svg preserveAspectRatio="none" overflow="visible" style="display: block;" width="16.6667" height="16.6667" viewBox="0 0 16.6667 16.6667" fill="none" xmlns="http://www.w3.org/2000/svg">
<g id="Container">
<path id="Icon" d="M13.3333 14.1667C13.0972 14.1667 12.8993 14.0868 12.7396 13.9271C12.5799 13.7674 12.5 13.5694 12.5 13.3333C12.5 13.0972 12.5799 12.8993 12.7396 12.7396C12.8993 12.5799 13.0972 12.5 13.3333 12.5C13.5694 12.5 13.7674 12.5799 13.9271 12.7396C14.0868 12.8993 14.1667 13.0972 14.1667 13.3333C14.1667 13.5694 14.0868 13.7674 13.9271 13.9271C13.7674 14.0868 13.5694 14.1667 13.3333 14.1667V14.1667M4.16667 16.6667C3.93056 16.6667 3.73264 16.5868 3.57292 16.4271C3.41319 16.2674 3.33333 16.0694 3.33333 15.8333C3.33333 15.5972 3.41319 15.3993 3.57292 15.2396C3.73264 15.0799 3.93056 15 4.16667 15C4.40278 15 4.60069 15.0799 4.76042 15.2396C4.92014 15.3993 5 15.5972 5 15.8333C5 16.0694 4.92014 16.2674 4.76042 16.4271C4.60069 16.5868 4.40278 16.6667 4.16667 16.6667V16.6667M3.33333 14.1667C3.09722 14.1667 2.89931 14.0868 2.73958 13.9271C2.57986 13.7674 2.5 13.5694 2.5 13.3333C2.5 13.0972 2.57986 12.8993 2.73958 12.7396C2.89931 12.5799 3.09722 12.5 3.33333 12.5H10.8333C11.0694 12.5 11.2674 12.5799 11.4271 12.7396C11.5868 12.8993 11.6667 13.0972 11.6667 13.3333C11.6667 13.5694 11.5868 13.7674 11.4271 13.9271C11.2674 14.0868 11.0694 14.1667 10.8333 14.1667H3.33333V14.1667M6.66667 16.6667C6.43056 16.6667 6.23264 16.5868 6.07292 16.4271C5.91319 16.2674 5.83333 16.0694 5.83333 15.8333C5.83333 15.5972 5.91319 15.3993 6.07292 15.2396C6.23264 15.0799 6.43056 15 6.66667 15H12.5C12.7361 15 12.934 15.0799 13.0938 15.2396C13.2535 15.3993 13.3333 15.5972 13.3333 15.8333C13.3333 16.0694 13.2535 16.2674 13.0938 16.4271C12.934 16.5868 12.7361 16.6667 12.5 16.6667H6.66667V16.6667M4.58333 11.6667C3.31944 11.6667 2.23958 11.2188 1.34375 10.3229C0.447917 9.42708 0 8.34722 0 7.08333C0 5.93056 0.381944 4.92361 1.14583 4.0625C1.90972 3.20139 2.85417 2.69444 3.97917 2.54167C4.42361 1.75 5.03125 1.12847 5.80208 0.677083C6.57292 0.225694 7.41667 0 8.33333 0C9.58333 0 10.6701 0.399306 11.5938 1.19792C12.5174 1.99653 13.0764 2.99306 13.2708 4.1875C14.2292 4.27083 15.0347 4.66667 15.6875 5.375C16.3403 6.08333 16.6667 6.93056 16.6667 7.91667C16.6667 8.95833 16.3021 9.84375 15.5729 10.5729C14.8438 11.3021 13.9583 11.6667 12.9167 11.6667H4.58333V11.6667M4.58333 10H12.9167C13.5 10 13.9931 9.79861 14.3958 9.39583C14.7986 8.99306 15 8.5 15 7.91667C15 7.33333 14.7986 6.84028 14.3958 6.4375C13.9931 6.03472 13.5 5.83333 12.9167 5.83333H11.6667V5C11.6667 4.08333 11.3403 3.29861 10.6875 2.64583C10.0347 1.99306 9.25 1.66667 8.33333 1.66667C7.66667 1.66667 7.05903 1.84722 6.51042 2.20833C5.96181 2.56944 5.54861 3.05556 5.27083 3.66667L5.0625 4.16667H4.54167C3.75 4.19444 3.07292 4.48958 2.51042 5.05208C1.94792 5.61458 1.66667 6.29167 1.66667 7.08333C1.66667 7.88889 1.95139 8.57639 2.52083 9.14583C3.09028 9.71528 3.77778 10 4.58333 10V10M8.33333 5.83333V5.83333V5.83333V5.83333V5.83333V5.83333V5.83333V5.83333V5.83333V5.83333V5.83333V5.83333V5.83333V5.83333V5.83333V5.83333V5.83333V5.83333V5.83333" fill="#15803D"/>
</g>
</svg>
